<svg width="46" height="39" viewBox="0 0 46 39" fill="none" xmlns="http://www.w3.org/2000/svg">
<g clip-path="url(#clip0_118_10)">
<path fill-rule="evenodd" clip-rule="evenodd" d="M41.2887 0.269191C41.855 0.0308367 42.4749 -0.05137 43.0837 0.0311261C43.6926 0.113622 44.2682 0.357806 44.7507 0.738261C45.2332 1.11872 45.6049 1.62153 45.827 2.19438C46.0492 2.76723 46.1138 3.38916 46.0141 3.99544L40.8166 35.5219C40.3125 38.5629 36.9758 40.3069 34.1868 38.7921C31.8539 37.5248 28.3889 35.5723 25.2722 33.535C23.7139 32.5152 18.9404 29.2496 19.527 26.9259C20.0312 24.939 28.052 17.4727 32.6354 13.0338C34.4343 11.2898 33.6139 10.2838 31.4895 11.8879C26.2118 15.8709 17.7441 21.9277 14.9437 23.6327C12.4733 25.1361 11.1854 25.3927 9.64537 25.1361C6.83578 24.6686 4.23016 23.9444 2.10349 23.0621C-0.770257 21.8704 -0.630465 17.9196 2.1012 16.7692L41.2887 0.269191Z" fill="#17ACFF"/>
</g>
<defs>
<clipPath id="clip0_118_10">
<rect width="46" height="39" fill="white"/>
</clipPath>
</defs>
</svg>
