<svg width="49" height="33" viewBox="0 0 49 33" fill="none" xmlns="http://www.w3.org/2000/svg">
<path d="M19.9166 23.375L31.8103 16.5L19.9166 9.62501V23.375ZM46.4082 5.43126C46.7062 6.50834 46.9124 7.95209 47.0499 9.78543C47.2103 11.6188 47.2791 13.2 47.2791 14.575L47.4166 16.5C47.4166 21.5188 47.0499 25.2083 46.4082 27.5688C45.8353 29.6313 44.5062 30.9604 42.4437 31.5333C41.3666 31.8313 39.3958 32.0375 36.3708 32.175C33.3916 32.3354 30.6645 32.4042 28.1437 32.4042L24.4999 32.5417C14.8978 32.5417 8.91658 32.175 6.55617 31.5333C4.49367 30.9604 3.1645 29.6313 2.59159 27.5688C2.29367 26.4917 2.08742 25.0479 1.94992 23.2146C1.7895 21.3813 1.72075 19.8 1.72075 18.425L1.58325 16.5C1.58325 11.4813 1.94992 7.79168 2.59159 5.43126C3.1645 3.36876 4.49367 2.03959 6.55617 1.46668C7.63325 1.16876 9.60408 0.96251 12.6291 0.82501C15.6083 0.664593 18.3353 0.595843 20.8562 0.595843L24.4999 0.458344C34.102 0.458344 40.0832 0.82501 42.4437 1.46668C44.5062 2.03959 45.8353 3.36876 46.4082 5.43126Z" fill="#FF522D"/>
</svg>
